<?xml version="1.0" standalone="no"?>
<!DOCTYPE svg PUBLIC "-//W3C//DTD SVG 20010904//EN"
 "http://www.w3.org/TR/2001/REC-SVG-20010904/DTD/svg10.dtd">
<svg version="1.0" xmlns="http://www.w3.org/2000/svg"
 width="1366.000000pt" height="1366.000000pt" viewBox="0 0 1366.000000 1366.000000"
 preserveAspectRatio="xMidYMid meet">
<metadata>
Created by potrace 1.11, written by Peter Selinger 2001-2013
</metadata>
<g transform="translate(0.000000,1366.000000) scale(0.100000,-0.100000)"
fill="#000000" stroke="none">
<path d="M6820 9783 c0 -5 -17 -9 -37 -9 -21 0 -60 -4 -88 -7 -27 -4 -68 -8
-90 -11 -123 -14 -161 -18 -180 -22 -11 -3 -42 -6 -70 -8 -27 -2 -70 -7 -95
-10 -46 -7 -97 -13 -160 -21 -19 -2 -60 -7 -90 -11 -66 -8 -102 -12 -155 -18
-22 -3 -60 -7 -85 -11 -25 -3 -63 -8 -85 -10 -68 -7 -138 -15 -185 -22 -25 -4
-52 -7 -60 -8 -30 -2 -155 -17 -170 -20 -8 -1 -46 -6 -83 -10 -37 -3 -78 -8
-90 -11 -12 -2 -49 -6 -82 -10 -33 -3 -71 -7 -85 -9 -87 -10 -138 -16 -160
-20 -14 -2 -54 -7 -90 -10 -36 -4 -72 -9 -80 -10 -8 -2 -40 -6 -70 -9 -79 -9
-151 -17 -180 -21 -25 -2 -101 -12 -171 -21 -20 -2 -55 -7 -79 -9 -24 -2 -59
-7 -79 -9 -20 -3 -61 -8 -91 -11 -30 -4 -70 -10 -87 -15 -21 -5 -33 -5 -33 1
0 6 -4 8 -8 5 -11 -7 -64 -16 -121 -21 -25 -2 -46 -5 -46 -6 0 0 -22 -3 -50
-5 -27 -2 -57 -7 -65 -10 -8 -3 -42 -7 -75 -9 -33 -2 -76 -6 -95 -9 -53 -8
-132 -18 -165 -22 -64 -7 -122 -14 -170 -20 -70 -9 -101 -13 -168 -18 -45 -4
-86 -19 -185 -68 -70 -35 -129 -66 -132 -69 -5 -6 -125 -68 -255 -132 -33 -17
-62 -33 -65 -36 -8 -9 -138 -73 -146 -71 -4 1 -10 -2 -13 -7 -3 -5 -44 -29
-91 -52 -47 -24 -99 -52 -116 -62 -17 -10 -34 -16 -37 -12 -4 3 -7 1 -7 -5 0
-6 -10 -14 -22 -17 -11 -4 -43 -20 -70 -36 -27 -16 -60 -32 -73 -35 -14 -3
-25 -9 -25 -13 0 -4 -25 -18 -55 -31 -30 -13 -55 -29 -55 -34 0 -5 -3 -6 -7
-3 -3 4 -11 3 -17 -2 -6 -5 -72 -40 -146 -79 -74 -38 -178 -91 -230 -119 -143
-76 -382 -200 -495 -257 -55 -28 -102 -53 -105 -56 -3 -3 -45 -25 -95 -50 -49
-24 -101 -52 -115 -61 -14 -9 -28 -17 -33 -18 -32 -3 -38 -20 -42 -117 -3 -54
-7 -157 -10 -229 -3 -71 -8 -184 -10 -250 -3 -66 -7 -165 -10 -220 -7 -148
-16 -366 -20 -485 -2 -58 -4 -105 -5 -105 -1 0 -3 -67 -6 -150 l-4 -150 66
-37 c37 -21 73 -38 80 -38 8 0 14 -4 14 -10 0 -5 15 -16 33 -23 17 -8 67 -35
110 -60 42 -25 77 -43 77 -39 0 4 4 2 8 -4 8 -11 43 -31 287 -164 33 -18 68
-40 78 -48 9 -8 17 -11 17 -7 0 4 8 2 18 -6 9 -8 26 -19 37 -25 104 -56 144
-79 170 -94 17 -10 51 -29 77 -44 111 -61 146 -80 201 -112 32 -19 60 -34 62
-34 2 0 42 -23 90 -50 48 -28 91 -50 96 -50 5 0 9 -4 9 -10 0 -5 4 -10 10 -10
5 0 103 -53 217 -117 114 -64 223 -123 240 -132 18 -8 33 -19 33 -23 0 -4 9
-8 20 -8 11 0 20 -4 20 -10 0 -5 5 -10 11 -10 6 0 24 -9 40 -21 16 -11 29 -17
29 -13 0 4 8 0 18 -8 16 -14 67 -44 192 -110 30 -16 59 -33 65 -38 9 -8 43
-13 150 -25 17 -2 59 -8 94 -14 35 -6 66 -10 70 -9 3 0 8 -1 11 -2 7 -2 43 -7
109 -14 29 -3 65 -7 80 -10 14 -3 50 -8 80 -11 30 -4 62 -8 71 -10 9 -2 39 -6
66 -9 27 -4 65 -9 84 -11 19 -3 55 -7 80 -10 25 -3 56 -8 70 -10 24 -4 66 -10
133 -19 17 -3 58 -8 90 -11 32 -4 68 -8 80 -11 12 -2 42 -7 67 -10 25 -3 56
-7 70 -9 14 -2 50 -7 80 -10 30 -3 62 -8 70 -10 8 -3 42 -7 74 -11 33 -3 67
-7 76 -9 8 -2 43 -6 75 -10 33 -4 68 -9 79 -11 10 -2 44 -6 75 -10 31 -3 63
-7 71 -9 21 -4 141 -20 215 -29 22 -3 74 -10 115 -16 97 -14 124 -18 185 -25
28 -3 61 -8 75 -10 41 -7 113 -17 145 -20 17 -2 46 -5 65 -8 19 -4 58 -9 85
-12 28 -4 66 -9 85 -11 19 -3 49 -7 65 -9 17 -2 47 -6 68 -9 20 -3 52 -8 70
-10 90 -12 125 -17 157 -21 19 -2 55 -7 80 -11 25 -4 59 -8 75 -9 17 -2 30 -4
30 -5 0 -1 11 -3 25 -5 25 -2 127 -15 165 -20 49 -7 122 -17 145 -20 14 -2 25
-4 25 -5 0 -2 99 -11 135 -12 39 0 128 8 175 15 29 5 111 15 185 23 19 2 55 6
80 10 25 3 59 7 75 9 17 2 53 6 80 9 28 3 73 9 100 12 28 3 63 8 80 10 16 3
50 7 75 9 25 3 55 7 66 9 12 2 59 7 105 11 46 4 86 8 89 10 3 1 30 6 60 9 30
4 78 9 105 12 28 3 61 7 75 9 14 2 52 6 85 10 33 3 71 8 85 10 45 7 104 14
160 20 30 3 66 7 80 10 14 2 52 7 85 10 33 4 74 8 90 10 67 8 132 16 170 20
41 5 106 13 160 20 17 2 53 7 80 10 28 3 84 10 125 15 141 17 185 22 225 26
22 1 40 3 40 4 0 2 32 7 105 14 36 3 76 8 90 11 14 3 48 7 75 9 69 6 370 43
370 46 0 1 18 3 40 4 22 2 65 6 95 10 30 4 71 9 90 11 19 3 55 7 80 11 25 3
61 7 80 9 19 2 60 6 90 10 30 4 66 8 80 10 14 2 46 6 73 9 31 3 86 26 160 64
109 58 214 113 502 262 77 40 144 77 150 81 5 5 17 9 26 9 10 0 19 4 21 9 3 9
183 102 194 100 4 0 10 3 13 8 3 5 47 29 96 54 50 25 116 60 148 78 31 17 57
28 57 24 0 -4 4 -3 8 3 6 10 211 119 467 248 55 28 102 53 105 56 3 3 37 21
75 40 39 19 87 44 108 57 20 13 37 21 37 18 0 -2 22 8 48 23 26 15 70 38 97
52 28 14 52 28 53 33 2 4 12 7 22 7 10 0 20 3 22 8 2 4 31 21 65 37 35 17 63
33 63 38 0 4 8 7 18 7 32 1 47 23 49 75 1 28 4 111 7 185 13 289 15 349 21
475 6 153 13 312 19 450 5 103 16 356 20 458 3 66 4 65 -114 129 -94 52 -263
146 -280 158 -8 5 -35 20 -60 32 -25 13 -47 25 -50 28 -3 3 -21 13 -40 24 -60
32 -164 89 -195 107 -16 10 -50 29 -75 42 -102 55 -115 62 -120 67 -3 3 -18
12 -35 20 -16 8 -32 17 -35 20 -3 3 -18 12 -35 20 -16 8 -67 36 -113 63 -45
26 -87 47 -92 47 -4 0 -10 3 -12 8 -2 4 -32 22 -68 41 -36 18 -72 40 -82 48
-9 8 -23 15 -31 17 -8 1 -21 7 -28 12 -8 6 -21 14 -29 17 -8 4 -37 20 -65 37
-27 16 -56 33 -63 36 -8 4 -77 42 -154 85 -77 44 -144 79 -148 79 -5 0 -10 3
-12 8 -1 4 -25 18 -53 32 -27 14 -52 27 -55 30 -3 3 -14 10 -25 16 -86 46
-111 60 -115 64 -3 3 -18 12 -35 20 -16 8 -42 23 -57 33 -16 10 -28 15 -28 10
0 -4 -4 -3 -8 3 -10 16 -133 78 -157 80 -24 2 -91 11 -125 18 -14 2 -50 7 -80
10 -30 4 -68 8 -85 11 -16 3 -48 7 -70 10 -22 3 -69 10 -105 15 -72 10 -134
18 -195 26 -22 2 -51 6 -65 8 -43 6 -124 17 -155 21 -16 2 -48 6 -70 9 -145
20 -195 27 -225 31 -19 2 -55 7 -80 10 -25 4 -58 8 -75 10 -16 3 -46 7 -65 9
-19 3 -57 8 -85 11 -50 6 -90 12 -90 15 0 0 -20 3 -45 6 -25 2 -63 6 -85 9
-22 3 -53 7 -70 9 -29 3 -103 14 -155 22 -14 2 -45 6 -70 9 -25 2 -56 7 -70
10 -14 3 -45 7 -70 10 -25 3 -58 6 -75 9 -16 2 -55 7 -85 10 -30 4 -62 9 -70
11 -8 2 -40 7 -70 10 -30 3 -66 8 -80 10 -25 4 -91 13 -160 21 -19 2 -51 6
-70 10 -50 8 -111 16 -137 17 -13 1 -23 3 -23 7 0 3 -15 5 -32 5 -32 1 -105 9
-158 19 -24 4 -90 12 -175 22 -42 5 -80 12 -80 14 0 1 -20 3 -45 4 -25 2 -60
7 -79 10 -18 4 -54 9 -80 11 -25 3 -64 8 -86 11 -22 3 -52 7 -67 7 -16 1 -28
5 -28 8 0 3 -10 5 -22 4 -12 -1 -40 2 -63 6 -22 4 -61 9 -88 12 -26 3 -52 9
-57 12 -6 3 -10 2 -10 -2z"/>
</g>
</svg>
